<?xml version="1.0" standalone="no"?>
<!DOCTYPE svg PUBLIC "-//W3C//DTD SVG 20010904//EN"
 "http://www.w3.org/TR/2001/REC-SVG-20010904/DTD/svg10.dtd">
<svg version="1.0" xmlns="http://www.w3.org/2000/svg"
 width="597.000000pt" height="572.000000pt" viewBox="0 0 597.000000 572.000000"
 preserveAspectRatio="xMidYMid meet">

<g transform="translate(0.000000,572.000000) scale(0.100000,-0.100000)"
fill="#000000" stroke="none">
<path d="M2840 5414 c-358 -41 -607 -105 -870 -223 -706 -319 -1235 -954
-1423 -1706 -59 -235 -72 -349 -71 -615 0 -267 19 -423 79 -655 262 -1007
1109 -1748 2155 -1887 128 -17 510 -16 625 1 277 41 525 111 745 210 357 162
682 414 932 725 519 644 693 1480 474 2277 -183 668 -602 1201 -1224 1559
-237 136 -575 249 -882 295 -99 15 -464 28 -540 19z m530 -129 c864 -131 1588
-695 1915 -1493 375 -917 167 -1952 -535 -2652 -372 -372 -805 -596 -1328
-686 -138 -24 -184 -28 -387 -28 -363 -1 -641 52 -950 181 -799 335 -1356
1060 -1482 1928 -24 171 -24 517 1 680 82 529 318 998 691 1370 186 187 371
324 595 443 246 131 565 230 840 261 52 6 111 13 130 15 73 9 410 -4 510 -19z"/>
<path d="M3066 4367 c-36 -47 -74 -135 -140 -327 -71 -203 -105 -274 -134
-278 -24 -4 -23 -5 -72 123 -16 44 -44 104 -61 134 -34 60 -42 57 -53 -18 -11
-71 -74 -193 -195 -376 -126 -190 -203 -338 -227 -435 -39 -156 27 -401 144
-531 l45 -50 44 77 c24 43 70 116 102 163 74 110 93 147 125 251 15 47 31 92
37 100 16 25 53 -27 94 -134 20 -52 43 -100 50 -106 32 -26 83 37 153 190 38
82 114 295 127 353 3 15 11 27 19 27 17 0 42 -59 117 -277 74 -215 103 -278
136 -300 24 -16 26 -16 43 5 10 12 21 40 25 61 4 22 13 46 22 53 13 10 18 9
34 -11 20 -24 39 -82 39 -118 0 -48 41 -147 96 -233 32 -49 61 -90 66 -90 13
0 84 102 116 165 53 105 67 167 67 305 0 152 -11 190 -127 430 -44 91 -98 210
-120 265 -53 136 -71 170 -88 170 -12 0 -15 -18 -16 -94 -1 -85 -4 -97 -24
-113 -19 -16 -25 -16 -49 -4 -58 31 -210 256 -261 388 -17 44 -36 119 -43 171
-12 89 -13 92 -39 95 -20 2 -32 -5 -52 -31z"/>
<path d="M2739 2266 c-90 -32 -149 -115 -149 -210 0 -55 33 -139 66 -168 58
-52 181 -65 253 -28 51 26 89 81 97 143 l7 47 -117 0 c-109 0 -116 -1 -116
-20 0 -19 7 -20 90 -20 101 0 108 -6 70 -67 -26 -43 -68 -63 -130 -63 -104 0
-171 68 -171 175 0 133 120 218 235 166 28 -12 53 -32 64 -50 27 -49 72 -40
47 9 -42 81 -152 120 -246 86z"/>
<path d="M3728 2268 c-52 -14 -113 -70 -133 -123 -27 -68 -17 -163 21 -217 62
-88 178 -117 278 -69 174 85 147 363 -40 410 -50 13 -75 13 -126 -1z m159 -59
c60 -37 95 -136 73 -206 -46 -142 -224 -168 -307 -44 -61 91 -31 209 67 259
53 28 113 24 167 -9z"/>
<path d="M1390 2055 c0 -207 1 -215 20 -215 17 0 19 8 22 88 l3 87 41 3 42 3
66 -90 c53 -73 71 -91 92 -91 29 0 30 -3 -43 97 -29 40 -53 76 -53 80 0 5 16
15 36 22 65 23 91 97 58 166 -24 51 -65 65 -183 65 l-101 0 0 -215z m224 153
c38 -35 39 -86 1 -123 -22 -22 -32 -25 -105 -25 l-80 0 0 85 0 85 79 0 c69 0
83 -3 105 -22z"/>
<path d="M1800 2055 l0 -215 25 0 c25 0 25 0 25 95 l0 95 100 0 c93 0 100 1
100 20 0 19 -7 20 -100 20 l-100 0 0 80 0 80 110 0 c103 0 110 1 110 20 0 19
-7 20 -135 20 l-135 0 0 -215z"/>
<path d="M2297 2263 c-9 -16 -177 -412 -177 -418 0 -4 10 -5 21 -3 15 2 28 18
43 55 l21 53 121 0 122 0 22 -55 c18 -45 27 -55 46 -55 19 0 22 4 16 18 -4 10
-45 107 -92 215 -80 186 -86 197 -112 197 -15 0 -29 -3 -31 -7z m84 -161 l46
-107 -95 -3 c-52 -1 -97 0 -100 2 -7 8 90 228 97 221 3 -4 27 -54 52 -113z"/>
<path d="M3110 2055 l0 -215 25 0 25 0 2 181 3 181 125 -181 c110 -159 128
-180 153 -181 l27 0 0 215 0 215 -25 0 -25 0 -2 -177 -3 -176 -123 176 c-112
161 -126 177 -153 177 l-29 0 0 -215z"/>
<path d="M4120 2055 c0 -208 1 -215 20 -215 19 0 20 7 20 180 0 99 3 180 8
180 4 -1 63 -82 132 -180 99 -144 129 -180 147 -180 l23 0 0 215 c0 208 -1
215 -20 215 -19 0 -20 -8 -22 -179 l-3 -179 -125 179 c-111 159 -127 179 -152
179 l-28 0 0 -215z"/>
<path d="M4610 2055 l0 -215 25 0 25 0 0 215 0 215 -25 0 -25 0 0 -215z"/>
<path d="M1470 1648 c-59 -41 -75 -72 -75 -146 0 -54 4 -73 23 -100 31 -43 73
-63 131 -64 57 0 102 21 130 61 44 61 17 69 -38 11 -34 -36 -43 -40 -88 -40
-59 0 -98 25 -119 76 -19 45 -18 78 5 122 42 82 147 96 207 28 27 -32 54 -47
54 -31 0 20 -36 69 -63 85 -46 28 -124 27 -167 -2z"/>
<path d="M1836 1647 c-56 -32 -78 -77 -74 -154 4 -70 24 -106 76 -136 39 -23
119 -24 160 -3 61 31 101 112 88 179 -21 115 -148 173 -250 114z m145 -22 c41
-22 69 -71 69 -123 0 -82 -51 -132 -135 -132 -40 0 -52 5 -80 33 -110 110 10
292 146 222z"/>
<path d="M2170 1505 c0 -140 2 -165 15 -165 13 0 15 22 15 135 0 74 3 135 8
135 4 0 49 -61 100 -135 129 -186 132 -185 132 30 0 139 -2 165 -15 165 -12 0
-15 -25 -17 -140 l-3 -141 -98 141 c-134 192 -137 191 -137 -25z"/>
<path d="M2559 1641 c-61 -61 -27 -130 75 -151 57 -12 76 -29 76 -68 0 -29
-32 -52 -74 -52 -29 0 -44 7 -66 30 -15 17 -33 30 -39 30 -14 0 -14 -3 1 -35
15 -34 57 -55 108 -55 54 0 79 14 96 55 26 63 -12 114 -99 129 -41 8 -77 36
-77 61 0 27 38 55 75 55 25 0 43 -7 59 -25 25 -27 46 -33 46 -12 -1 36 -52 67
-110 67 -33 0 -48 -6 -71 -29z"/>
<path d="M2830 1544 c0 -130 6 -156 44 -186 26 -22 106 -24 145 -4 42 22 51
54 51 191 0 101 -3 125 -14 125 -12 0 -15 -26 -18 -131 -3 -123 -4 -132 -27
-150 -34 -28 -96 -25 -126 6 -24 23 -25 30 -25 150 0 104 -2 125 -15 125 -13
0 -15 -21 -15 -126z"/>
<path d="M3180 1505 l0 -165 95 0 c78 0 95 3 95 15 0 12 -16 15 -80 15 l-80 0
0 150 c0 127 -2 150 -15 150 -13 0 -15 -25 -15 -165z"/>
<path d="M3400 1655 c0 -12 13 -15 55 -15 l55 0 0 -150 c0 -127 2 -150 15
-150 13 0 15 23 15 150 l0 150 55 0 c42 0 55 3 55 15 0 13 -21 15 -125 15
-104 0 -125 -2 -125 -15z"/>
<path d="M3805 1638 c-7 -18 -38 -91 -69 -162 -31 -72 -56 -131 -56 -133 0 -2
7 -3 16 -3 9 0 23 17 32 40 l17 40 93 0 94 0 15 -40 c11 -26 22 -40 34 -40 15
0 17 4 10 23 -12 28 -105 243 -121 280 -18 37 -48 35 -65 -5z m74 -97 c17 -40
31 -77 31 -82 0 -10 -133 -13 -142 -3 -4 3 10 43 30 89 21 46 40 81 43 77 4
-4 21 -40 38 -81z"/>
<path d="M4060 1506 c0 -140 2 -166 15 -166 12 0 15 25 17 143 l3 142 99 -142
c134 -192 136 -192 136 22 0 139 -2 165 -15 165 -12 0 -15 -24 -17 -137 l-3
-138 -96 135 c-66 94 -102 136 -117 138 -22 3 -22 3 -22 -162z"/>
<path d="M4400 1655 c0 -12 13 -15 55 -15 l55 0 0 -150 c0 -125 2 -150 15
-150 12 0 15 25 17 148 l3 147 58 3 c42 2 57 7 57 17 0 12 -23 15 -130 15
-109 0 -130 -2 -130 -15z"/>
</g>
</svg>
